<?xml version="1.0" standalone="no"?>
<!DOCTYPE svg PUBLIC "-//W3C//DTD SVG 20010904//EN"
 "http://www.w3.org/TR/2001/REC-SVG-20010904/DTD/svg10.dtd">
<svg version="1.0" xmlns="http://www.w3.org/2000/svg"
 width="310.000000pt" height="310.000000pt" viewBox="0 0 310.000000 310.000000"
 preserveAspectRatio="xMidYMid meet">
<metadata>
Created by potrace 1.14, written by Peter Selinger 2001-2017
</metadata>
<g transform="translate(0.000000,310.000000) scale(0.100000,-0.100000)"
fill="#000000" stroke="none">
<path d="M0 1550 l0 -1550 1550 0 1550 0 0 1550 0 1550 -1550 0 -1550 0 0
-1550z m738 348 c1 -104 6 -188 11 -188 5 0 11 4 13 10 2 5 73 90 158 190
l155 180 218 0 c128 0 217 -4 215 -9 -1 -5 -86 -95 -187 -200 -110 -115 -181
-197 -178 -205 3 -7 91 -153 196 -323 105 -171 191 -316 191 -322 0 -8 -55
-11 -202 -9 l-203 3 -107 205 c-58 113 -109 210 -111 215 -3 6 -40 -28 -83
-74 l-79 -85 -5 -130 -5 -131 -167 -3 -168 -2 0 535 0 535 168 -2 167 -3 3
-187z m1713 165 c109 -50 160 -124 167 -244 5 -88 -7 -134 -51 -197 -31 -43
-111 -102 -139 -102 -9 0 -21 -6 -27 -14 -10 -11 -5 -18 26 -36 21 -12 54 -41
73 -66 36 -46 200 -349 200 -371 0 -10 -43 -13 -184 -13 l-183 0 -99 182 c-54
100 -111 197 -127 214 -24 28 -65 48 -102 49 -6 0 -12 -83 -15 -220 l-5 -220
-167 -3 -168 -2 0 536 0 535 378 -3 c359 -3 379 -5 423 -25z"/>
<path d="M1990 1771 l0 -111 70 0 c84 0 163 16 190 38 45 37 41 127 -6 159
-20 12 -56 18 -140 21 l-114 5 0 -112z"/>
</g>
</svg>
